<mxfile host="app.diagrams.net" modified="2023-09-26T12:46:01.190Z" agent="Mozilla/5.0 (Windows NT 10.0; Win64; x64) AppleWebKit/537.36 (KHTML, like Gecko) Chrome/116.0.0.0 Safari/537.36" etag="CpOmqoHA7cY7X20QfxF-" version="21.8.2" type="google">
  <diagram name="Page-1" id="13e1069c-82ec-6db2-03f1-153e76fe0fe0">
    <mxGraphModel grid="1" page="1" gridSize="10" guides="1" tooltips="1" connect="1" arrows="1" fold="1" pageScale="1" pageWidth="1100" pageHeight="850" background="none" math="0" shadow="0">
      <root>
        <mxCell id="0" />
        <mxCell id="1" parent="0" />
        <mxCell id="fz9KmcT7C63mgUbdPj1H-16" value="Auth error" style="html=1;verticalAlign=bottom;endArrow=block;curved=0;rounded=0;" edge="1" parent="1" source="0NujKpZnPItL9abAfU7m-5" target="0NujKpZnPItL9abAfU7m-3">
          <mxGeometry width="80" relative="1" as="geometry">
            <mxPoint x="545.5" y="419.28999999999996" as="sourcePoint" />
            <mxPoint x="365.5" y="419.28999999999996" as="targetPoint" />
            <Array as="points">
              <mxPoint x="450" y="460" />
            </Array>
          </mxGeometry>
        </mxCell>
        <mxCell id="fz9KmcT7C63mgUbdPj1H-1" value="Validation error message" style="html=1;verticalAlign=bottom;endArrow=block;curved=0;rounded=0;" edge="1" parent="1" source="0NujKpZnPItL9abAfU7m-3" target="0NujKpZnPItL9abAfU7m-1">
          <mxGeometry width="80" relative="1" as="geometry">
            <mxPoint x="360" y="220" as="sourcePoint" />
            <mxPoint x="180" y="220" as="targetPoint" />
            <Array as="points">
              <mxPoint x="260" y="220" />
            </Array>
          </mxGeometry>
        </mxCell>
        <mxCell id="0NujKpZnPItL9abAfU7m-1" value="User" style="shape=umlLifeline;perimeter=lifelinePerimeter;whiteSpace=wrap;html=1;container=1;collapsible=0;recursiveResize=0;outlineConnect=0;rounded=1;shadow=0;comic=0;labelBackgroundColor=none;strokeWidth=1;fontFamily=Verdana;fontSize=12;align=center;" vertex="1" parent="1">
          <mxGeometry x="130" y="20" width="100" height="630" as="geometry" />
        </mxCell>
        <mxCell id="0NujKpZnPItL9abAfU7m-17" value="" style="html=1;points=[];perimeter=orthogonalPerimeter;rounded=0;shadow=0;comic=0;labelBackgroundColor=none;strokeWidth=1;fontFamily=Verdana;fontSize=12;align=center;" vertex="1" parent="0NujKpZnPItL9abAfU7m-1">
          <mxGeometry x="45" y="80" width="10" height="40" as="geometry" />
        </mxCell>
        <mxCell id="0NujKpZnPItL9abAfU7m-3" value="Client" style="shape=umlLifeline;perimeter=lifelinePerimeter;whiteSpace=wrap;html=1;container=1;collapsible=0;recursiveResize=0;outlineConnect=0;rounded=1;shadow=0;comic=0;labelBackgroundColor=none;strokeWidth=1;fontFamily=Verdana;fontSize=12;align=center;" vertex="1" parent="1">
          <mxGeometry x="310" y="20" width="100" height="630" as="geometry" />
        </mxCell>
        <mxCell id="0NujKpZnPItL9abAfU7m-6" value="" style="html=1;points=[];perimeter=orthogonalPerimeter;rounded=0;shadow=0;comic=0;labelBackgroundColor=none;strokeWidth=1;fontFamily=Verdana;fontSize=12;align=center;" vertex="1" parent="0NujKpZnPItL9abAfU7m-3">
          <mxGeometry x="45" y="120" width="10" height="160" as="geometry" />
        </mxCell>
        <mxCell id="0NujKpZnPItL9abAfU7m-5" value="Server" style="shape=umlLifeline;perimeter=lifelinePerimeter;whiteSpace=wrap;html=1;container=1;collapsible=0;recursiveResize=0;outlineConnect=0;rounded=1;shadow=0;comic=0;labelBackgroundColor=none;strokeWidth=1;fontFamily=Verdana;fontSize=12;align=center;" vertex="1" parent="1">
          <mxGeometry x="500" y="20" width="100" height="630" as="geometry" />
        </mxCell>
        <mxCell id="0NujKpZnPItL9abAfU7m-13" value="DB" style="shape=umlLifeline;perimeter=lifelinePerimeter;whiteSpace=wrap;html=1;container=1;collapsible=0;recursiveResize=0;outlineConnect=0;rounded=1;shadow=0;comic=0;labelBackgroundColor=none;strokeWidth=1;fontFamily=Verdana;fontSize=12;align=center;" vertex="1" parent="1">
          <mxGeometry x="700" y="20" width="100" height="630" as="geometry" />
        </mxCell>
        <mxCell id="fz9KmcT7C63mgUbdPj1H-9" value="" style="html=1;points=[];perimeter=orthogonalPerimeter;rounded=0;shadow=0;comic=0;labelBackgroundColor=none;strokeWidth=1;fontFamily=Verdana;fontSize=12;align=center;" vertex="1" parent="0NujKpZnPItL9abAfU7m-13">
          <mxGeometry x="45" y="320" width="10" height="40" as="geometry" />
        </mxCell>
        <mxCell id="0NujKpZnPItL9abAfU7m-15" value="Sign in page" style="html=1;verticalAlign=bottom;endArrow=block;curved=0;rounded=0;" edge="1" parent="1" source="0NujKpZnPItL9abAfU7m-3" target="0NujKpZnPItL9abAfU7m-1">
          <mxGeometry width="80" relative="1" as="geometry">
            <mxPoint x="440" y="220" as="sourcePoint" />
            <mxPoint x="520" y="220" as="targetPoint" />
            <Array as="points">
              <mxPoint x="260" y="100" />
            </Array>
          </mxGeometry>
        </mxCell>
        <mxCell id="0NujKpZnPItL9abAfU7m-16" value="Login, password" style="html=1;verticalAlign=bottom;endArrow=block;curved=0;rounded=0;" edge="1" parent="1" source="0NujKpZnPItL9abAfU7m-1" target="0NujKpZnPItL9abAfU7m-3">
          <mxGeometry width="80" relative="1" as="geometry">
            <mxPoint x="360" y="160" as="sourcePoint" />
            <mxPoint x="250" y="250" as="targetPoint" />
            <Array as="points">
              <mxPoint x="270" y="140" />
            </Array>
          </mxGeometry>
        </mxCell>
        <mxCell id="0NujKpZnPItL9abAfU7m-18" value="alt" style="shape=umlFrame;whiteSpace=wrap;html=1;pointerEvents=0;width=40;height=20;" vertex="1" parent="1">
          <mxGeometry x="40" y="180" width="860" height="470" as="geometry" />
        </mxCell>
        <mxCell id="0NujKpZnPItL9abAfU7m-20" value="invalid input" style="text;html=1;align=left;verticalAlign=middle;resizable=0;points=[];autosize=1;strokeColor=none;fillColor=none;fontSize=10;" vertex="1" parent="1">
          <mxGeometry x="45" y="200" width="80" height="30" as="geometry" />
        </mxCell>
        <mxCell id="0NujKpZnPItL9abAfU7m-19" value="" style="line;strokeWidth=1;fillColor=none;align=left;verticalAlign=middle;spacingTop=-1;spacingLeft=3;spacingRight=3;rotatable=0;labelPosition=right;points=[];portConstraint=eastwest;strokeColor=inherit;dashed=1;dashPattern=12 12;" vertex="1" parent="1">
          <mxGeometry x="40" y="250" width="860" height="20" as="geometry" />
        </mxCell>
        <mxCell id="fz9KmcT7C63mgUbdPj1H-6" value="Valid login and password" style="html=1;verticalAlign=bottom;endArrow=block;curved=0;rounded=0;" edge="1" parent="1" source="0NujKpZnPItL9abAfU7m-3" target="0NujKpZnPItL9abAfU7m-5">
          <mxGeometry width="80" relative="1" as="geometry">
            <mxPoint x="480.24" y="290" as="sourcePoint" />
            <mxPoint x="660.24" y="290" as="targetPoint" />
            <Array as="points">
              <mxPoint x="470" y="300" />
            </Array>
          </mxGeometry>
        </mxCell>
        <mxCell id="0NujKpZnPItL9abAfU7m-14" value="" style="html=1;points=[];perimeter=orthogonalPerimeter;rounded=0;shadow=0;comic=0;labelBackgroundColor=none;strokeWidth=1;fontFamily=Verdana;fontSize=12;align=center;" vertex="1" parent="1">
          <mxGeometry x="545" y="300" width="10" height="40" as="geometry" />
        </mxCell>
        <mxCell id="fz9KmcT7C63mgUbdPj1H-7" value="User data query" style="html=1;verticalAlign=bottom;endArrow=block;curved=0;rounded=0;" edge="1" parent="1" source="0NujKpZnPItL9abAfU7m-5" target="0NujKpZnPItL9abAfU7m-13">
          <mxGeometry width="80" relative="1" as="geometry">
            <mxPoint x="550.09" y="390" as="sourcePoint" />
            <mxPoint x="740.09" y="390" as="targetPoint" />
            <Array as="points">
              <mxPoint x="660" y="340" />
            </Array>
          </mxGeometry>
        </mxCell>
        <mxCell id="fz9KmcT7C63mgUbdPj1H-8" value="User data" style="html=1;verticalAlign=bottom;endArrow=block;curved=0;rounded=0;" edge="1" parent="1" source="0NujKpZnPItL9abAfU7m-13" target="0NujKpZnPItL9abAfU7m-5">
          <mxGeometry width="80" relative="1" as="geometry">
            <mxPoint x="730.3299999999999" y="410" as="sourcePoint" />
            <mxPoint x="550.3299999999999" y="410" as="targetPoint" />
            <Array as="points">
              <mxPoint x="650" y="380" />
            </Array>
          </mxGeometry>
        </mxCell>
        <mxCell id="fz9KmcT7C63mgUbdPj1H-10" value="" style="html=1;points=[];perimeter=orthogonalPerimeter;rounded=0;shadow=0;comic=0;labelBackgroundColor=none;strokeWidth=1;fontFamily=Verdana;fontSize=12;align=center;" vertex="1" parent="1">
          <mxGeometry x="545" y="380" width="10" height="190" as="geometry" />
        </mxCell>
        <mxCell id="fz9KmcT7C63mgUbdPj1H-11" value="valid input" style="text;html=1;align=left;verticalAlign=middle;resizable=0;points=[];autosize=1;strokeColor=none;fillColor=none;fontSize=10;" vertex="1" parent="1">
          <mxGeometry x="45" y="260" width="70" height="30" as="geometry" />
        </mxCell>
        <mxCell id="fz9KmcT7C63mgUbdPj1H-12" value="alt" style="shape=umlFrame;whiteSpace=wrap;html=1;pointerEvents=0;width=40;height=20;" vertex="1" parent="1">
          <mxGeometry x="50" y="420" width="840" height="220" as="geometry" />
        </mxCell>
        <mxCell id="fz9KmcT7C63mgUbdPj1H-13" value="wrong password&lt;br&gt;or login" style="text;html=1;align=left;verticalAlign=middle;resizable=0;points=[];autosize=1;strokeColor=none;fillColor=none;fontSize=10;" vertex="1" parent="1">
          <mxGeometry x="60" y="440" width="100" height="40" as="geometry" />
        </mxCell>
        <mxCell id="fz9KmcT7C63mgUbdPj1H-14" value="" style="line;strokeWidth=1;fillColor=none;align=left;verticalAlign=middle;spacingTop=-1;spacingLeft=3;spacingRight=3;rotatable=0;labelPosition=right;points=[];portConstraint=eastwest;strokeColor=inherit;dashed=1;dashPattern=12 12;" vertex="1" parent="1">
          <mxGeometry x="50" y="520" width="840" height="20" as="geometry" />
        </mxCell>
        <mxCell id="fz9KmcT7C63mgUbdPj1H-15" value="right password&lt;br&gt;and login" style="text;html=1;align=left;verticalAlign=middle;resizable=0;points=[];autosize=1;strokeColor=none;fillColor=none;fontSize=10;" vertex="1" parent="1">
          <mxGeometry x="60" y="530" width="90" height="40" as="geometry" />
        </mxCell>
        <mxCell id="fz9KmcT7C63mgUbdPj1H-17" value="" style="html=1;points=[];perimeter=orthogonalPerimeter;rounded=0;shadow=0;comic=0;labelBackgroundColor=none;strokeWidth=1;fontFamily=Verdana;fontSize=12;align=center;" vertex="1" parent="1">
          <mxGeometry x="355" y="460" width="10" height="40" as="geometry" />
        </mxCell>
        <mxCell id="fz9KmcT7C63mgUbdPj1H-18" value="Auth error message" style="html=1;verticalAlign=bottom;endArrow=block;curved=0;rounded=0;" edge="1" parent="1" source="0NujKpZnPItL9abAfU7m-3" target="0NujKpZnPItL9abAfU7m-1">
          <mxGeometry width="80" relative="1" as="geometry">
            <mxPoint x="390.21000000000004" y="500" as="sourcePoint" />
            <mxPoint x="200.21" y="500" as="targetPoint" />
            <Array as="points">
              <mxPoint x="290.21000000000004" y="500" />
            </Array>
          </mxGeometry>
        </mxCell>
        <mxCell id="fz9KmcT7C63mgUbdPj1H-19" value="Auth response" style="html=1;verticalAlign=bottom;endArrow=block;curved=0;rounded=0;" edge="1" parent="1" source="0NujKpZnPItL9abAfU7m-5" target="0NujKpZnPItL9abAfU7m-3">
          <mxGeometry width="80" relative="1" as="geometry">
            <mxPoint x="550.21" y="580" as="sourcePoint" />
            <mxPoint x="360.21" y="580" as="targetPoint" />
            <Array as="points">
              <mxPoint x="450" y="570" />
            </Array>
          </mxGeometry>
        </mxCell>
        <mxCell id="fz9KmcT7C63mgUbdPj1H-20" value="" style="html=1;points=[];perimeter=orthogonalPerimeter;rounded=0;shadow=0;comic=0;labelBackgroundColor=none;strokeWidth=1;fontFamily=Verdana;fontSize=12;align=center;" vertex="1" parent="1">
          <mxGeometry x="355" y="570" width="10" height="40" as="geometry" />
        </mxCell>
        <mxCell id="fz9KmcT7C63mgUbdPj1H-21" value="Success notification,&lt;br&gt;dashboard page" style="html=1;verticalAlign=bottom;endArrow=block;curved=0;rounded=0;" edge="1" parent="1" source="0NujKpZnPItL9abAfU7m-3" target="0NujKpZnPItL9abAfU7m-1">
          <mxGeometry width="80" relative="1" as="geometry">
            <mxPoint x="355" y="640" as="sourcePoint" />
            <mxPoint x="175" y="640" as="targetPoint" />
            <Array as="points">
              <mxPoint x="290" y="610" />
            </Array>
          </mxGeometry>
        </mxCell>
      </root>
    </mxGraphModel>
  </diagram>
</mxfile>
